<svg xmlns="http://www.w3.org/2000/svg" enable-background="new 0 0 512 512" viewBox="0 0 512 512" id="GoodReview"><path fill="#cfffeb" d="M490.6,116.544H21.4c-10.98,0-19.881,8.901-19.881,19.881v161.261
			c0,10.98,8.901,19.881,19.881,19.881h39.206v65.92c0,10.866,13.344,16.074,20.704,8.08l68.14-74H490.6
			c10.98,0,19.881-8.901,19.881-19.881V136.425C510.481,125.445,501.58,116.544,490.6,116.544z" className="colorcfe9ff svgShape"></path><path fill="#e6fff5" d="M132.537,116.547c-0.517,1.272-1.153,2.465-1.909,3.618c-7.117,10.935-20.159,16.502-32.884,19.484
			c-12.724,3.022-25.965,4.095-38.093,9.066c-25.249,10.338-41.95,38.451-39.007,65.569c1.074,9.901,4.056,21.273-2.465,28.788
			c-3.936,4.493-10.259,6.044-16.183,6.759c-0.159,0-0.318,0.04-0.477,0.04V136.429c0-10.975,8.907-19.881,19.881-19.881H132.537z" className="colore6f5ff svgShape"></path><path fill="#52cc99" d="M510.481,136.429v161.238c0,11.014-8.907,19.881-19.881,19.881H162.359
			c7.953-9.583,19.364-16.899,31.333-20.597c21.551-6.64,44.693-4.294,67.199-2.386c22.466,1.909,45.886,3.181,66.762-5.368
			c15.786-6.442,29.146-18.172,45.369-23.341c17.973-5.766,38.013-3.022,55.588-9.861c16.82-6.561,29.623-21.671,34.991-38.888
			c5.368-17.217,3.618-36.224-3.141-52.924c-4.334-10.696-10.736-20.875-11.611-32.367c-0.398-5.249,0.437-10.418,2.187-15.269
			H490.6C501.574,116.547,510.481,125.454,510.481,136.429z" className="color99ccff svgShape"></path><path fill="#48fdb1" d="M89.987,229.42l3.95,12.174c1.712,5.278-4.332,9.662-8.817,6.395l-10.329-7.523
			c-2.006-1.461-4.724-1.463-6.733-0.006l-10.46,7.588c-4.487,3.255-10.519-1.129-8.808-6.401l3.967-12.227
			c0.764-2.356-0.073-4.937-2.075-6.395l-10.381-7.561c-4.481-3.263-2.172-10.354,3.371-10.354h12.822
			c2.475,0,4.67-1.59,5.441-3.942l4.024-12.279c1.726-5.265,9.177-5.254,10.887,0.016l3.973,12.246
			c0.766,2.36,2.965,3.959,5.446,3.959h12.808c5.543,0,7.852,7.09,3.371,10.354l-10.381,7.561
			C90.06,224.483,89.222,227.064,89.987,229.42z" className="colorfdbb48 svgShape"></path><path fill="#4ef7b0" d="M90.01,229.445l3.902,12.121c1.743,5.314-4.317,9.714-8.8,6.393l-10.295-7.472
			c-1.993-1.494-4.732-1.494-6.725,0l-10.461,7.555c-0.166,0.083-0.332,0.249-0.498,0.249c-0.332-1.494-0.415-3.072-0.249-4.566
			c0.581-5.147,3.902-9.631,7.638-13.284c3.736-3.653,8.054-6.725,11.707-10.461c3.653-3.819,6.642-8.552,6.808-13.782
			c0-0.747,0-1.495-0.083-2.159c0.913,0.664,2.076,1.079,3.321,1.079H99.06c5.562,0,7.887,7.057,3.404,10.378l-10.378,7.555
			C90.093,224.464,89.263,227.037,90.01,229.445z" className="colorf7934e svgShape"></path><path fill="#48fdb1" d="M182.297,229.42l3.95,12.174c1.712,5.278-4.332,9.662-8.817,6.395l-10.329-7.523
			c-2.006-1.461-4.724-1.463-6.733-0.006l-10.46,7.588c-4.487,3.255-10.519-1.129-8.808-6.401l3.967-12.227
			c0.764-2.356-0.073-4.937-2.075-6.395l-10.381-7.561c-4.481-3.263-2.172-10.354,3.371-10.354h12.822
			c2.475,0,4.67-1.59,5.441-3.942l4.024-12.279c1.726-5.265,9.177-5.254,10.887,0.016l3.973,12.246
			c0.766,2.36,2.965,3.959,5.446,3.959h12.808c5.543,0,7.852,7.09,3.371,10.354l-10.381,7.561
			C182.37,224.483,181.532,227.064,182.297,229.42z" className="colorfdbb48 svgShape"></path><path fill="#4ef7b0" d="M182.32,229.445l3.902,12.121c1.743,5.314-4.317,9.714-8.8,6.393l-10.295-7.472
			c-1.993-1.494-4.732-1.494-6.725,0l-10.461,7.555c-0.166,0.083-0.332,0.249-0.498,0.249c-0.332-1.494-0.415-3.072-0.249-4.566
			c0.581-5.147,3.902-9.631,7.638-13.284c3.736-3.653,8.054-6.725,11.707-10.461c3.653-3.819,6.642-8.552,6.808-13.782
			c0-0.747,0-1.495-0.083-2.159c0.913,0.664,2.076,1.079,3.321,1.079h12.785c5.562,0,7.887,7.057,3.404,10.378l-10.378,7.555
			C182.403,224.464,181.573,227.037,182.32,229.445z" className="colorf7934e svgShape"></path><path fill="#48fdb1" d="M274.607,229.42l3.95,12.174c1.712,5.278-4.332,9.662-8.817,6.395l-10.329-7.523
			c-2.006-1.461-4.724-1.463-6.733-0.006l-10.46,7.588c-4.487,3.255-10.519-1.129-8.808-6.401l3.967-12.227
			c0.764-2.356-0.073-4.937-2.075-6.395l-10.381-7.561c-4.481-3.263-2.172-10.354,3.371-10.354h12.822
			c2.475,0,4.67-1.59,5.441-3.942l4.024-12.279c1.726-5.265,9.177-5.254,10.887,0.016l3.973,12.246
			c0.766,2.36,2.965,3.959,5.446,3.959h12.808c5.543,0,7.852,7.09,3.371,10.354l-10.381,7.561
			C274.68,224.483,273.843,227.064,274.607,229.42z" className="colorfdbb48 svgShape"></path><path fill="#4ef7b0" d="M274.63,229.445l3.902,12.121c1.743,5.314-4.317,9.714-8.8,6.393l-10.295-7.472
			c-1.993-1.494-4.732-1.494-6.725,0l-10.461,7.555c-0.166,0.083-0.332,0.249-0.498,0.249c-0.332-1.494-0.415-3.072-0.249-4.566
			c0.581-5.147,3.902-9.631,7.638-13.284c3.736-3.653,8.054-6.725,11.707-10.461c3.653-3.819,6.642-8.552,6.808-13.782
			c0-0.747,0-1.495-0.083-2.159c0.913,0.664,2.076,1.079,3.321,1.079h12.785c5.562,0,7.887,7.057,3.404,10.378l-10.378,7.555
			C274.714,224.464,273.884,227.037,274.63,229.445z" className="colorf7934e svgShape"></path><path fill="#48fdb1" d="M366.917,229.42l3.95,12.174c1.712,5.278-4.332,9.662-8.817,6.395l-10.329-7.523
			c-2.006-1.461-4.724-1.463-6.733-0.006l-10.46,7.588c-4.487,3.255-10.519-1.129-8.808-6.401l3.967-12.227
			c0.764-2.356-0.073-4.937-2.075-6.395l-10.381-7.561c-4.481-3.263-2.172-10.354,3.371-10.354h12.822
			c2.475,0,4.67-1.59,5.441-3.942l4.024-12.279c1.726-5.265,9.177-5.254,10.887,0.016l3.973,12.246
			c0.766,2.36,2.965,3.959,5.446,3.959h12.808c5.543,0,7.852,7.09,3.371,10.354l-10.381,7.561
			C366.99,224.483,366.153,227.064,366.917,229.42z" className="colorfdbb48 svgShape"></path><path fill="#4ef7b0" d="M366.941,229.445l3.902,12.121c1.743,5.314-4.317,9.714-8.8,6.393l-10.295-7.472
			c-1.993-1.494-4.732-1.494-6.725,0l-10.461,7.555c-0.166,0.083-0.332,0.249-0.498,0.249c-0.332-1.494-0.415-3.072-0.249-4.566
			c0.581-5.147,3.902-9.631,7.638-13.284c3.736-3.653,8.054-6.725,11.707-10.461c3.653-3.819,6.642-8.552,6.808-13.782
			c0-0.747,0-1.495-0.083-2.159c0.913,0.664,2.076,1.079,3.321,1.079h12.785c5.562,0,7.887,7.057,3.404,10.378l-10.378,7.555
			C367.024,224.464,366.194,227.037,366.941,229.445z" className="colorf7934e svgShape"></path><path fill="#48fdb1" d="M459.227,229.42l3.95,12.174c1.712,5.278-4.332,9.662-8.817,6.395l-10.329-7.523
			c-2.006-1.461-4.724-1.463-6.733-0.006l-10.46,7.588c-4.487,3.255-10.519-1.129-8.808-6.401l3.967-12.227
			c0.764-2.356-0.073-4.937-2.075-6.395l-10.381-7.561c-4.481-3.263-2.172-10.354,3.371-10.354h12.822
			c2.475,0,4.67-1.59,5.441-3.942l4.024-12.279c1.726-5.265,9.177-5.254,10.887,0.016l3.973,12.246
			c0.766,2.36,2.965,3.959,5.446,3.959h12.808c5.543,0,7.852,7.09,3.371,10.354l-10.381,7.561
			C459.3,224.483,458.463,227.064,459.227,229.42z" className="colorfdbb48 svgShape"></path><path fill="#4ef7b0" d="M459.251,229.445l3.902,12.121c1.743,5.314-4.317,9.714-8.8,6.393l-10.295-7.472
			c-1.993-1.494-4.732-1.494-6.725,0l-10.461,7.555c-0.166,0.083-0.332,0.249-0.498,0.249c-0.332-1.494-0.415-3.072-0.249-4.566
			c0.581-5.147,3.902-9.631,7.638-13.284c3.736-3.653,8.054-6.725,11.707-10.461c3.653-3.819,6.642-8.552,6.808-13.782
			c0-0.747,0-1.495-0.083-2.159c0.913,0.664,2.076,1.079,3.321,1.079h12.785c5.562,0,7.887,7.057,3.404,10.378l-10.378,7.555
			C459.334,224.464,458.504,227.037,459.251,229.445z" className="colorf7934e svgShape"></path><path fill="#4c4c4c" d="M490.6,115.054H21.4c-11.785,0-21.372,9.587-21.372,21.372v161.26
				c0,11.785,9.587,21.372,21.372,21.372h37.714v64.428c0,12.258,15.005,18.094,23.293,9.09l67.698-73.518H490.6
				c11.785,0,21.372-9.587,21.372-21.372v-161.26C511.972,124.641,502.385,115.054,490.6,115.054z M508.99,297.686
				c0,10.141-8.25,18.39-18.39,18.39H149.45c-0.417,0-0.815,0.175-1.097,0.482l-68.14,74c-6.436,6.998-18.116,2.434-18.116-7.071
				v-65.919c0-0.823-0.668-1.491-1.491-1.491H21.4c-10.141,0-18.39-8.25-18.39-18.39v-161.26c0-10.141,8.25-18.39,18.39-18.39h469.2
				c10.141,0,18.39,8.25,18.39,18.39V297.686z" className="color4c4c4c svgShape"></path><path fill="#4c4c4c" d="M99.073 203.619h-12.81c-1.841 0-3.46-1.177-4.027-2.928l-3.972-12.247c-.982-3.027-3.673-4.984-6.856-4.99-.004 0-.006 0-.01 0-3.178 0-5.869 1.951-6.858 4.97l-4.025 12.278c-.571 1.743-2.188 2.916-4.023 2.916H43.669c-3.182 0-5.877 1.955-6.861 4.982-.986 3.027.039 6.193 2.613 8.069l10.381 7.56c1.485 1.081 2.103 2.982 1.534 4.73l-3.967 12.228c-.98 3.027.049 6.192 2.623 8.063 2.566 1.869 5.895 1.878 8.481.006l10.459-7.589c1.489-1.081 3.491-1.078 4.98.004l10.329 7.523c2.573 1.87 5.902 1.877 8.486.008 2.578-1.872 3.609-5.038 2.627-8.069l-3.949-12.173h-.002c-.567-1.747.05-3.648 1.536-4.73l10.381-7.56c2.574-1.876 3.6-5.042 2.613-8.069C104.95 205.574 102.255 203.619 99.073 203.619zM101.566 214.259l-10.381 7.56c-2.532 1.843-3.584 5.083-2.617 8.061l3.949 12.173c.701 2.157-.336 3.86-1.54 4.733-1.2.876-3.145 1.334-4.98-.004l-10.329-7.523c-2.53-1.843-5.941-1.848-8.486-.008l-10.459 7.589c-1.831 1.334-3.776.872-4.976-.002-1.202-.874-2.239-2.576-1.538-4.732l3.965-12.228c.967-2.978-.083-6.217-2.615-8.061l-10.381-7.56c-1.833-1.334-1.994-3.32-1.534-4.733.46-1.413 1.759-2.924 4.027-2.924h12.824c3.128 0 5.883-1.998 6.858-4.97l4.025-12.278c.703-2.149 2.538-2.916 4.023-2.916.002 0 .004 0 .006 0 1.487.002 3.324.773 4.021 2.928l3.974 12.247c.969 2.984 3.728 4.99 6.863 4.99h12.81c2.268 0 3.567 1.511 4.027 2.924S103.399 212.925 101.566 214.259zM191.382 203.619h-12.808c-1.841 0-3.46-1.177-4.027-2.928l-3.974-12.247c-.982-3.027-3.673-4.986-6.856-4.99-.002 0-.006 0-.01 0-3.176 0-5.867 1.951-6.856 4.97l-4.025 12.278c-.571 1.743-2.188 2.916-4.025 2.916H135.98c-3.184 0-5.877 1.955-6.861 4.982-.986 3.027.039 6.193 2.613 8.069l10.381 7.56c1.485 1.081 2.103 2.982 1.534 4.73l-3.965 12.228c-.982 3.027.047 6.192 2.621 8.063 2.565 1.869 5.895 1.878 8.481.006l10.459-7.589c1.489-1.081 3.491-1.078 4.98.004l10.329 7.523c2.573 1.87 5.902 1.877 8.486.008 2.578-1.872 3.609-5.038 2.627-8.069l-3.949-12.173c0 0 0 0-.002 0-.567-1.747.05-3.648 1.536-4.73l10.381-7.56c2.573-1.876 3.598-5.042 2.611-8.069C197.259 205.574 194.564 203.619 191.382 203.619zM193.877 214.259l-10.381 7.56c-2.532 1.843-3.584 5.083-2.615 8.061h-.002l3.949 12.173c.701 2.157-.336 3.86-1.54 4.733-1.2.876-3.145 1.334-4.98-.004l-10.329-7.523c-2.536-1.846-5.947-1.85-8.486-.008l-10.459 7.589c-1.833 1.334-3.774.872-4.976-.002s-2.239-2.576-1.538-4.732l3.965-12.228c.967-2.978-.083-6.217-2.615-8.061l-10.381-7.56c-1.833-1.334-1.994-3.32-1.534-4.733s1.759-2.924 4.027-2.924h12.822c3.13 0 5.885-1.998 6.859-4.97l4.025-12.278c.703-2.149 2.538-2.916 4.023-2.916.002 0 .004 0 .006 0 1.485.002 3.322.773 4.021 2.928l3.974 12.247c.969 2.984 3.728 4.99 6.863 4.99h12.808c2.268 0 3.567 1.511 4.027 2.924S195.707 212.925 193.877 214.259zM283.692 203.619h-12.808c-1.841 0-3.46-1.177-4.027-2.928l-3.974-12.247c-.98-3.027-3.671-4.984-6.854-4.99-.004 0-.008 0-.012 0-3.176 0-5.867 1.949-6.858 4.97l-4.023 12.278c-.571 1.743-2.188 2.916-4.025 2.916H228.29c-3.182 0-5.877 1.955-6.861 4.982-.986 3.027.039 6.193 2.613 8.069l10.381 7.56c1.485 1.081 2.103 2.982 1.534 4.73l-3.967 12.228c-.98 3.027.049 6.192 2.623 8.063 2.566 1.869 5.895 1.878 8.481.006l10.459-7.589c1.489-1.081 3.491-1.081 4.98.004l10.329 7.523c2.571 1.87 5.9 1.877 8.486.008 2.578-1.872 3.609-5.038 2.627-8.069l-3.949-12.173h-.002c-.567-1.747.05-3.648 1.536-4.73l10.379-7.56c2.574-1.876 3.6-5.042 2.613-8.069C289.569 205.574 286.876 203.619 283.692 203.619zM286.185 214.259l-10.379 7.56c-2.532 1.843-3.584 5.083-2.617 8.061l3.949 12.173c.701 2.157-.336 3.86-1.54 4.733-1.2.876-3.145 1.334-4.98-.004l-10.329-7.523c-2.538-1.846-5.949-1.846-8.486-.008l-10.459 7.589c-1.831 1.334-3.772.872-4.976-.002-1.202-.874-2.239-2.576-1.538-4.732l3.965-12.228c.967-2.978-.083-6.217-2.615-8.061l-10.381-7.56c-1.833-1.334-1.994-3.32-1.534-4.733s1.759-2.924 4.027-2.924h12.822c3.13 0 5.885-1.998 6.859-4.97l4.023-12.278c.705-2.149 2.54-2.916 4.025-2.916 1.662-.052 3.326.769 4.027 2.928l3.974 12.247c.969 2.984 3.728 4.99 6.863 4.99h12.808c2.268 0 3.567 1.511 4.027 2.924S288.018 212.925 286.185 214.259zM376.003 203.619h-12.808c-1.843 0-3.46-1.177-4.027-2.928l-3.974-12.247c-.98-3.027-3.671-4.984-6.854-4.99-.004 0-.008 0-.012 0-3.176 0-5.867 1.949-6.858 4.97l-4.023 12.276c-.573 1.745-2.19 2.918-4.025 2.918h-12.822c-3.184 0-5.877 1.955-6.861 4.982-.986 3.027.039 6.193 2.613 8.069l10.381 7.56c1.483 1.081 2.101 2.982 1.534 4.73l-3.965 12.228c-.982 3.027.047 6.192 2.621 8.063 2.566 1.869 5.895 1.878 8.481.006l10.459-7.589c1.489-1.081 3.491-1.081 4.98.004l10.329 7.523c2.571 1.87 5.9 1.877 8.486.008 2.578-1.872 3.609-5.038 2.627-8.069l-3.949-12.173c0 0 0 0-.002 0-.567-1.747.051-3.648 1.534-4.73l10.381-7.56c2.574-1.876 3.6-5.042 2.613-8.069C381.88 205.574 379.185 203.619 376.003 203.619zM378.496 214.259l-10.381 7.56c-2.53 1.843-3.58 5.083-2.613 8.061h-.002l3.949 12.173c.701 2.157-.336 3.86-1.54 4.733-1.2.876-3.145 1.334-4.98-.004l-10.329-7.523c-2.536-1.846-5.947-1.846-8.486-.008l-10.459 7.589c-1.833 1.334-3.774.872-4.976-.002s-2.239-2.576-1.538-4.732l3.967-12.228c.963-2.98-.087-6.219-2.617-8.061l-10.381-7.56c-1.833-1.334-1.994-3.32-1.534-4.733s1.759-2.924 4.027-2.924h12.822c3.126 0 5.883-1.998 6.859-4.97l4.023-12.278c.705-2.149 2.54-2.916 4.025-2.916 1.559-.052 3.326.769 4.027 2.928l3.972 12.247c.969 2.984 3.726 4.99 6.865 4.99h12.808c2.268 0 3.567 1.511 4.027 2.924S380.328 212.925 378.496 214.259zM468.313 203.619h-12.808c-1.843 0-3.46-1.177-4.027-2.928l-3.974-12.247c-.98-3.027-3.671-4.984-6.854-4.99-.004 0-.008 0-.012 0-3.176 0-5.867 1.949-6.858 4.97l-4.025 12.278c-.571 1.743-2.188 2.916-4.023 2.916h-12.822c-3.182 0-5.877 1.955-6.861 4.982-.986 3.027.039 6.193 2.613 8.069l10.381 7.56c1.483 1.081 2.101 2.982 1.534 4.73l-3.967 12.228c-.98 3.027.047 6.192 2.621 8.063 2.551 1.856 5.878 1.89 8.481.006l10.461-7.589c1.489-1.081 3.491-1.078 4.98.004l10.327 7.523c2.574 1.877 5.908 1.879 8.486.006 2.58-1.87 3.611-5.036 2.627-8.067l-3.951-12.173c-.565-1.749.052-3.65 1.536-4.73l10.381-7.56c2.574-1.876 3.6-5.042 2.613-8.069C474.19 205.574 471.497 203.619 468.313 203.619zM470.806 214.259l-10.381 7.56c-2.53 1.843-3.58 5.081-2.617 8.061 0 0 0 0 .002 0l3.949 12.173c.701 2.157-.336 3.86-1.542 4.733-1.206.876-3.143 1.334-4.98-.004l-10.327-7.523c-2.541-1.844-5.949-1.844-8.486-.008l-10.461 7.589c-1.837 1.33-3.774.872-4.974-.002-1.204-.874-2.239-2.576-1.538-4.732l3.967-12.228c.963-2.98-.087-6.219-2.617-8.061l-10.381-7.56c-1.833-1.334-1.994-3.32-1.534-4.733s1.759-2.924 4.027-2.924h12.822c3.128 0 5.883-1.998 6.858-4.97l4.025-12.278c.705-2.149 2.54-2.916 4.025-2.916 1.456-.052 3.326.769 4.027 2.928l3.972 12.247c.969 2.984 3.726 4.99 6.865 4.99h12.808c2.268 0 3.567 1.511 4.027 2.924S472.639 212.925 470.806 214.259z" className="color4c4c4c svgShape"></path></svg>